<?xml version="1.0" encoding="UTF-8" standalone="no"?>
<svg
   xmlns:dc="http://purl.org/dc/elements/1.1/"
   xmlns:cc="http://creativecommons.org/ns#"
   xmlns:rdf="http://www.w3.org/1999/02/22-rdf-syntax-ns#"
   xmlns:svg="http://www.w3.org/2000/svg"
   xmlns="http://www.w3.org/2000/svg"
   xmlns:sodipodi="http://sodipodi.sourceforge.net/DTD/sodipodi-0.dtd"
   xmlns:inkscape="http://www.inkscape.org/namespaces/inkscape"
   viewBox="0.0 0.0 348.0 348.0"
   fill="none"
   id="svg2"
   version="1.1"
   inkscape:version="0.91 r13725"
   sodipodi:docname="Catchphrase.svg">
  <metadata
     id="metadata12">
    <rdf:RDF>
      <cc:Work
         rdf:about="">
        <dc:format>image/svg+xml</dc:format>
        <dc:type
           rdf:resource="http://purl.org/dc/dcmitype/StillImage" />
      </cc:Work>
    </rdf:RDF>
  </metadata>
  <defs
     id="defs10" />
  <sodipodi:namedview
     pagecolor="#ffffff"
     bordercolor="#666666"
     borderopacity="1"
     objecttolerance="10"
     gridtolerance="10"
     guidetolerance="10"
     inkscape:pageopacity="0"
     inkscape:pageshadow="2"
     inkscape:window-width="1440"
     inkscape:window-height="785"
     id="namedview8"
     showgrid="false"
     inkscape:zoom="0.95906437"
     inkscape:cx="16.422481"
     inkscape:cy="180.28769"
     inkscape:window-x="0"
     inkscape:window-y="1"
     inkscape:window-maximized="1"
     inkscape:current-layer="svg2" />
  <path
     d="M5.079 5.776h336.913v337.67H5.08z"
     stroke-width="2"
     stroke="#000"
     id="path4" />
  <path
     d="M282.734 40.554c0-8.376 6.966-15.165 15.56-15.165 4.126 0 8.084 1.597 11.001 4.441 2.918 2.844 4.558 6.702 4.558 10.724 0 8.376-6.966 15.165-15.56 15.165-8.593 0-15.559-6.79-15.559-15.165z"
     stroke-width="2"
     stroke="#000"
     id="path6" />
  <rect
     style="fill:#000000;fill-rule:evenodd;stroke:#000000;stroke-width:1px;stroke-linecap:butt;stroke-linejoin:miter;stroke-opacity:1;fill-opacity:1"
     id="rect4140"
     width="250.67796"
     height="231.50847"
     x="4.4237289"
     y="5.8983049" />
  <rect
     y="25.59322"
     x="37.067795"
     height="92.898308"
     width="92.898308"
     id="rect4144"
     style="fill:#0000ff;fill-rule:evenodd;stroke:#000000;stroke-width:1px;stroke-linecap:butt;stroke-linejoin:miter;stroke-opacity:1" />
  <rect
     style="fill:#ff0000;fill-opacity:1;fill-rule:evenodd;stroke:#000000;stroke-width:1px;stroke-linecap:butt;stroke-linejoin:miter;stroke-opacity:1"
     id="rect4146"
     width="92.898308"
     height="92.898308"
     x="129.96609"
     y="25.59322" />
  <rect
     y="119.9661"
     x="129.96609"
     height="92.898308"
     width="92.898308"
     id="rect4148"
     style="fill:#00ff00;fill-opacity:1;fill-rule:evenodd;stroke:#000000;stroke-width:1px;stroke-linecap:butt;stroke-linejoin:miter;stroke-opacity:1" />
  <rect
     style="fill:#ffff00;fill-opacity:1;fill-rule:evenodd;stroke:#000000;stroke-width:1px;stroke-linecap:butt;stroke-linejoin:miter;stroke-opacity:1"
     id="rect4150"
     width="92.898308"
     height="92.898308"
     x="37.068001"
     y="119.9661" />
  <rect
     style="fill:#000000;fill-rule:evenodd;stroke:#000000;stroke-width:1px;stroke-linecap:butt;stroke-linejoin:miter;stroke-opacity:1;fill-opacity:1"
     id="rect4168"
     width="75.940681"
     height="31.70339"
     x="258.78815"
     y="110.59322" />
  <path
     id="path4192"
     d="m 286.84606,94.253083 c 0,-5.765494 4.79495,-10.4386 10.7105,-10.4386 2.84007,0 5.5645,1.099271 7.57237,3.056896 2.00856,1.957624 3.13743,4.613221 3.13743,7.381704 0,5.765497 -4.79494,10.438607 -10.71049,10.438607 -5.91486,0 -10.70981,-4.6738 -10.70981,-10.438607 z"
     inkscape:connector-curvature="0"
     style="stroke:#000000;stroke-width:1.37667;fill:#00ff00;fill-opacity:1" />
  <path
     style="fill:#ff0000;fill-opacity:1;stroke:#000000;stroke-width:1.37667"
     inkscape:connector-curvature="0"
     d="m 286.84606,160.39715 c 0,-5.76549 4.79495,-10.4386 10.7105,-10.4386 2.84007,0 5.5645,1.09927 7.57237,3.0569 2.00856,1.95762 3.13743,4.61322 3.13743,7.3817 0,5.7655 -4.79494,10.43861 -10.71049,10.43861 -5.91486,0 -10.70981,-4.6738 -10.70981,-10.43861 z"
     id="path4194" />
  <g
     style="font-style:normal;font-weight:normal;font-size:40px;line-height:125%;font-family:sans-serif;letter-spacing:0px;word-spacing:0px;fill:#ffffff;fill-opacity:1;stroke:none;stroke-width:1px;stroke-linecap:butt;stroke-linejoin:miter;stroke-opacity:1"
     id="text4196">
    <path
       d="m 293.41567,164.35424 c 0,1.975 0.55,3.125 1.325,3.9 0.825,0.8 1.85,1 2.8,1 0.9,0 1.95,-0.2 2.775,-1 0.775,-0.775 1.3,-1.925 1.3,-3.9 l 0,-0.35 c 0,-0.5 -0.4,-0.9 -0.875,-0.9 l -0.725,0 c -0.5,0 -0.9,0.4 -0.9,0.9 l 0,0.35 c 0,0.9 -0.125,1.575 -0.425,1.975 -0.225,0.25 -0.675,0.45 -1.15,0.45 -1.075,0 -1.6,-0.75 -1.6,-2.425 l 0,-7.075 c 0,-1.675 0.55,-2.4 1.6,-2.4 1.025,0 1.575,0.725 1.575,2.4 l 0,0.35 c 0,0.5 0.4,0.9 0.9,0.9 l 0.725,0 c 0.475,0 0.875,-0.4 0.875,-0.9 l 0,-0.35 c 0,-1.9 -0.525,-3.15 -1.325,-3.9 -0.825,-0.75 -1.825,-0.975 -2.75,-0.975 -0.95,0 -1.95,0.225 -2.775,0.975 -0.8,0.75 -1.35,2 -1.35,3.9 l 0,7.075 z"
       style="font-style:normal;font-variant:normal;font-weight:900;font-stretch:normal;font-size:25px;font-family:'Ostrich Sans';-inkscape-font-specification:'Ostrich Sans Heavy';fill:#ffffff;fill-opacity:1"
       id="path4340" />
  </g>
  <g
     style="font-style:normal;font-weight:normal;font-size:40px;line-height:125%;font-family:sans-serif;letter-spacing:0px;word-spacing:0px;fill:#000000;fill-opacity:1;stroke:none;stroke-width:1px;stroke-linecap:butt;stroke-linejoin:miter;stroke-opacity:1"
     id="text4200">
    <path
       d="m 293.46567,98.354242 c 0,3.274998 1.375,4.874998 4.125,4.874998 2.65,0 4.125,-1.5 4.125,-4.299998 0,-2.425 -1.675,-3.7 -3.325,-4.975 l 0.025,0 c -1.225,-0.95 -2.45,-1.925 -2.45,-3.2 0,-1.3 0.575,-1.875 1.625,-1.875 1.1,0 1.625,0.75 1.625,2.4 l 0,0.35 c 0,0.5 0.4,0.9 0.9,0.9 l 0.7,0 c 0.5,0 0.9,-0.4 0.9,-0.9 l 0,-0.35 c 0,-3.175 -1.425,-4.9 -4.125,-4.9 -2.65,0 -4.125,1.625 -4.125,4.45 0,2.475 1.725,3.825 3.375,5.125 l 0,-0.025 c 1.225,0.95 2.375,1.875 2.375,3.05 0,1.324998 -0.575,1.774998 -1.625,1.774998 -0.35,0 -0.775,-0.05 -1.05,-0.325 -0.35,-0.3 -0.575,-0.874998 -0.575,-2.074998 l 0,-0.325 c 0,-0.5 -0.425,-0.9 -0.9,-0.9 l -0.7,0 c -0.5,0 -0.9,0.4 -0.9,0.9 z"
       style="font-style:normal;font-variant:normal;font-weight:900;font-stretch:normal;font-size:25px;font-family:'Ostrich Sans';-inkscape-font-specification:'Ostrich Sans Heavy';fill:#ffffff;fill-opacity:1"
       id="path4343"
       inkscape:connector-curvature="0"
       sodipodi:nodetypes="sssccssssssssssccsscssssss" />
  </g>
  <rect
     style="fill:#000000;fill-opacity:1;fill-rule:evenodd;stroke:#000000;stroke-width:1.13059497px;stroke-linecap:butt;stroke-linejoin:miter;stroke-opacity:1"
     id="rect4204"
     width="229.90331"
     height="92.767708"
     x="17.022926"
     y="242.63309" />
  <g
     id="g4294">
    <path
       style="fill:#585959;fill-opacity:1;fill-rule:evenodd;stroke:#000000;stroke-width:1px;stroke-linecap:butt;stroke-linejoin:miter;stroke-opacity:1"
       d="m 39.49152,250.67796 33.915253,0 0,33.91526 -33.915253,0 z"
       id="rect4208" />
    <g
       style="font-style:normal;font-weight:normal;font-size:40px;line-height:125%;font-family:sans-serif;letter-spacing:0px;word-spacing:0px;fill:#000000;fill-opacity:1;stroke:none;stroke-width:1px;stroke-linecap:butt;stroke-linejoin:miter;stroke-opacity:1"
       id="text4210">
      <path
         d="m 51.710838,262.47219 c 0.64,0.56 1.6,0.4 2.08,-0.24 l 0.2,-0.2 0,17.96 c 0,0.8 0.64,1.44 1.4,1.44 l 1.16,0 c 0.8,0 1.44,-0.64 1.44,-1.44 l 0,-24.08 c 0,-0.8 -0.64,-1.44 -1.44,-1.44 l -1.12,0 c -0.32,0 -0.96,0.32 -1.12,0.56 l -3.68,4.76 c -0.48,0.64 -0.32,1.56 0.32,2 l 0.76,0.68 z"
         style="font-style:normal;font-variant:normal;font-weight:900;font-stretch:normal;font-family:'Ostrich Sans';-inkscape-font-specification:'Ostrich Sans Heavy';fill:#ffffff;fill-opacity:1"
         id="path4337" />
    </g>
  </g>
  <g
     transform="translate(208.72881,70.042373)"
     id="g4219">
    <path
       style="fill:#585959;fill-opacity:1;fill-rule:evenodd;stroke:#000000;stroke-width:1px;stroke-linecap:butt;stroke-linejoin:miter;stroke-opacity:1"
       d="m -131.23729,180.63559 33.915253,0 0,33.91525 -33.915253,0 z"
       id="rect4221" />
    <g
       style="font-style:normal;font-weight:normal;font-size:40px;line-height:125%;font-family:sans-serif;letter-spacing:0px;word-spacing:0px;fill:#000000;fill-opacity:1;stroke:none;stroke-width:1px;stroke-linecap:butt;stroke-linejoin:miter;stroke-opacity:1"
       id="text4223">
      <path
         d="m -115.97797,207.42983 c 0.28,-2.72 1.24,-4.56 3.16,-6.24 3.04,-2.72 4.52,-5.88 4.52,-9.56 0,-4.12 -2.12,-7.2 -5.88,-7.2 -3.96,0 -5.92,2.68 -5.92,7.32 l 0,0.24 c 0,0.76 0.64,1.4 1.44,1.4 l 1.16,0 c 0.76,0 1.4,-0.64 1.4,-1.4 l 0,-0.24 c 0,-2.32 0.64,-3.36 1.92,-3.36 1.2,0 1.88,1.28 1.88,3.24 0,2.36 -1.16,4.64 -3.2,6.56 -1.68,1.56 -2.96,3.36 -3.68,5.32 l 0.04,-0.04 c -0.64,1.72 -0.96,3.64 -0.96,5.92 l 0,0.56 c 0,0.8 0.64,1.44 1.44,1.44 l 8.92,0 c 0.8,0 1.44,-0.64 1.44,-1.44 l 0,-1.08 c 0,-0.8 -0.64,-1.44 -1.44,-1.44 l -6.24,0 z"
         style="font-style:normal;font-variant:normal;font-weight:900;font-stretch:normal;font-family:'Ostrich Sans';-inkscape-font-specification:'Ostrich Sans Heavy';fill:#ffffff;fill-opacity:1"
         id="path4333" />
    </g>
  </g>
  <g
     id="g4227"
     transform="translate(246.72881,70.042373)">
    <path
       style="fill:#585959;fill-opacity:1;fill-rule:evenodd;stroke:#000000;stroke-width:1px;stroke-linecap:butt;stroke-linejoin:miter;stroke-opacity:1"
       d="m -131.23729,180.63559 33.915253,0 0,33.91525 -33.915253,0 z"
       id="rect4229" />
    <g
       style="font-style:normal;font-weight:normal;font-size:40px;line-height:125%;font-family:sans-serif;letter-spacing:0px;word-spacing:0px;fill:#000000;fill-opacity:1;stroke:none;stroke-width:1px;stroke-linecap:butt;stroke-linejoin:miter;stroke-opacity:1"
       id="text4231">
      <path
         d="m -120.17797,203.58983 c 0,4.92 2,7.8 5.92,7.8 3.56,0 5.88,-2.92 5.88,-7.64 0,-3 -1.24,-4.8 -2.28,-5.8 1.04,-1.04 2.28,-2.88 2.28,-5.84 0,-2.12 -0.4,-3.8 -1.32,-5.12 l 0.04,0.04 c -1.08,-1.76 -2.6,-2.6 -4.6,-2.6 -3.92,0 -5.92,2.88 -5.92,7.84 l 0,0.2 c 0,0.8 0.64,1.44 1.44,1.44 l 1.16,0 c 0.76,0 1.4,-0.64 1.4,-1.44 l 0,-0.2 c 0,-2.6 0.68,-3.88 1.92,-3.88 0.48,0 0.92,0.24 1.2,0.72 0.48,0.72 0.68,1.72 0.68,3 0,1.4 -0.44,2.36 -1.08,2.96 l 0.04,0 c -0.56,0.6 -1.24,0.88 -1.76,0.88 l -0.52,0 c -0.8,0 -1.44,0.64 -1.44,1.44 l 0,1.08 c 0,0.8 0.64,1.44 1.44,1.44 l 0.52,0 c 0.4,0 1.08,0.2 1.72,0.84 0.48,0.44 1.08,1.36 1.08,3 0,0.64 -0.08,1.24 -0.16,1.76 -0.2,0.8 -0.64,1.92 -1.72,1.92 -1.24,0 -1.92,-1.16 -1.92,-3.84 l 0,-0.2 c 0,-0.8 -0.64,-1.44 -1.4,-1.44 l -1.16,0 c -0.8,0 -1.44,0.64 -1.44,1.44 l 0,0.2 z"
         style="font-style:normal;font-variant:normal;font-weight:900;font-stretch:normal;font-family:'Ostrich Sans';-inkscape-font-specification:'Ostrich Sans Heavy';fill:#ffffff;fill-opacity:1"
         id="path4329" />
    </g>
  </g>
  <g
     transform="translate(282.72881,70.042373)"
     id="g4235">
    <path
       style="fill:#585959;fill-opacity:1;fill-rule:evenodd;stroke:#000000;stroke-width:1px;stroke-linecap:butt;stroke-linejoin:miter;stroke-opacity:1"
       d="m -131.23729,180.63559 33.915253,0 0,33.91525 -33.915253,0 z"
       id="rect4237" />
    <g
       style="font-style:normal;font-weight:normal;font-size:40px;line-height:125%;font-family:sans-serif;letter-spacing:0px;word-spacing:0px;fill:#000000;fill-opacity:1;stroke:none;stroke-width:1px;stroke-linecap:butt;stroke-linejoin:miter;stroke-opacity:1"
       id="text4239">
      <path
         d="m -111.73797,204.02983 0,5.92 c 0,0.8 0.64,1.44 1.44,1.44 l 1.12,0 c 0.8,0 1.44,-0.64 1.44,-1.44 l 0,-24.08 c 0,-0.8 -0.64,-1.44 -1.44,-1.44 l -1.08,0 c -0.4,0 -1.04,0.4 -1.24,0.76 l -8.6,15.96 0,1.44 c 0,0.8 0.64,1.44 1.44,1.44 l 6.92,0 z m 0,-3.96 -3.68,0 3.72,-6.48 -0.04,6.48 z"
         style="font-style:normal;font-variant:normal;font-weight:900;font-stretch:normal;font-family:'Ostrich Sans';-inkscape-font-specification:'Ostrich Sans Heavy';fill:#ffffff;fill-opacity:1"
         id="path4325" />
    </g>
  </g>
  <g
     id="g4243"
     transform="translate(318.72881,70.042373)">
    <path
       style="fill:#585959;fill-opacity:1;fill-rule:evenodd;stroke:#000000;stroke-width:1px;stroke-linecap:butt;stroke-linejoin:miter;stroke-opacity:1"
       d="m -131.23729,180.63559 33.915253,0 0,33.91525 -33.915253,0 z"
       id="rect4245" />
    <g
       style="font-style:normal;font-weight:normal;font-size:40px;line-height:125%;font-family:sans-serif;letter-spacing:0px;word-spacing:0px;fill:#000000;fill-opacity:1;stroke:none;stroke-width:1px;stroke-linecap:butt;stroke-linejoin:miter;stroke-opacity:1"
       id="text4247">
      <path
         d="m -120.21797,199.42983 c 0,0.8 0.64,1.44 1.44,1.44 l 1.16,0 c 0.76,0 1.44,-0.64 1.44,-1.44 0,-1.32 0.76,-1.92 1.88,-1.92 1.28,0 1.88,1.08 1.88,3.6 l 0,2.56 c 0,0.64 -0.08,1.2 -0.16,1.72 -0.2,0.8 -0.52,2.04 -1.72,2.04 -1.08,0 -1.88,-0.36 -1.88,-2.96 l 0,-0.16 c 0,-0.76 -0.68,-1.4 -1.44,-1.4 l -1.16,0 c -0.8,0 -1.44,0.64 -1.44,1.4 l 0,0.16 c 0,4.84 2,6.92 5.92,6.92 2,0 3.48,-0.84 4.6,-2.64 0.84,-1.32 1.28,-3.16 1.28,-5.08 l 0,-2.56 c 0,-2.24 -0.2,-4.04 -1.12,-5.36 -1.12,-1.52 -2.16,-2.24 -4.64,-2.24 -0.76,0 -1.88,0.6 -2,0.96 l 0,-6.08 6.36,0 c 0.76,0 1.4,-0.64 1.4,-1.44 l 0,-1.08 c 0,-0.8 -0.64,-1.44 -1.4,-1.44 l -8.96,0 c -0.8,0 -1.44,0.64 -1.44,1.44 l 0,13.56 z"
         style="font-style:normal;font-variant:normal;font-weight:900;font-stretch:normal;font-family:'Ostrich Sans';-inkscape-font-specification:'Ostrich Sans Heavy';fill:#ffffff;fill-opacity:1"
         id="path4321" />
    </g>
  </g>
  <g
     transform="translate(170.72881,114.04237)"
     id="g4251">
    <path
       style="fill:#585959;fill-opacity:1;fill-rule:evenodd;stroke:#000000;stroke-width:1px;stroke-linecap:butt;stroke-linejoin:miter;stroke-opacity:1"
       d="m -131.23729,180.63559 33.915253,0 0,33.91525 -33.915253,0 z"
       id="rect4253" />
    <g
       style="font-style:normal;font-weight:normal;font-size:40px;line-height:125%;font-family:sans-serif;letter-spacing:0px;word-spacing:0px;fill:#000000;fill-opacity:1;stroke:none;stroke-width:1px;stroke-linecap:butt;stroke-linejoin:miter;stroke-opacity:1"
       id="text4255">
      <path
         d="m -120.21797,204.30983 c 0,4.48 2.2,7.08 5.92,7.08 2,0 3.52,-0.92 4.6,-2.72 0.84,-1.36 1.28,-3.16 1.28,-5.16 l 0,-2.24 c 0,-4.68 -1.6,-7.72 -5.4,-7.72 -1,0 -2,0.4 -2.36,1.08 l 0,-0.08 c 0,-1.16 -0.08,-3.48 0.32,-4.68 0.28,-0.84 0.88,-1.48 1.56,-1.48 1.2,0 1.88,1 1.88,2.88 l 0,0.04 c 0,0.76 0.64,1.44 1.44,1.44 l 1.16,0 c 0.76,0 1.4,-0.68 1.4,-1.44 l 0,-0.04 c 0,-4.16 -1.96,-6.84 -5.88,-6.84 -1.16,0 -2.72,0.36 -3.96,1.88 -1.08,1.32 -1.96,3.64 -1.96,7.44 l 0,10.56 z m 4.04,-3.08 c 0,-2.24 0.64,-3.72 1.88,-3.72 1.24,0 1.88,1.16 1.88,3.76 l 0,2.24 c 0,0.64 -0.08,1.32 -0.16,1.84 -0.2,0.84 -0.64,2.08 -1.72,2.08 -0.76,0 -1.24,-0.36 -1.48,-0.88 -0.36,-0.68 -0.4,-1.56 -0.4,-2.24 l 0,-3.08 z"
         style="font-style:normal;font-variant:normal;font-weight:900;font-stretch:normal;font-family:'Ostrich Sans';-inkscape-font-specification:'Ostrich Sans Heavy';fill:#ffffff;fill-opacity:1"
         id="path4301" />
    </g>
  </g>
  <g
     id="g4259"
     transform="translate(208.72881,114.04237)">
    <path
       style="fill:#585959;fill-opacity:1;fill-rule:evenodd;stroke:#000000;stroke-width:1px;stroke-linecap:butt;stroke-linejoin:miter;stroke-opacity:1"
       d="m -131.23729,180.63559 33.915253,0 0,33.91525 -33.915253,0 z"
       id="rect4261" />
    <g
       style="font-style:normal;font-weight:normal;font-size:40px;line-height:125%;font-family:sans-serif;letter-spacing:0px;word-spacing:0px;fill:#000000;fill-opacity:1;stroke:none;stroke-width:1px;stroke-linecap:butt;stroke-linejoin:miter;stroke-opacity:1"
       id="text4263">
      <path
         d="m -105.45797,187.22983 0,-1.36 c 0,-0.8 -0.64,-1.44 -1.44,-1.44 l -11.92,0 c -0.76,0 -1.4,0.64 -1.4,1.44 l 0,1.08 c 0,0.8 0.64,1.44 1.4,1.44 l 8.56,0 -8.8,21.04 c -0.4,1 0.24,1.96 1.32,1.96 l 1.24,0 c 0.48,0 1.12,-0.44 1.32,-0.88 l 9.72,-23.28 z"
         style="font-style:normal;font-variant:normal;font-weight:900;font-stretch:normal;font-family:'Ostrich Sans';-inkscape-font-specification:'Ostrich Sans Heavy';fill:#ffffff;fill-opacity:1"
         id="path4305" />
    </g>
  </g>
  <g
     transform="translate(246.72881,114.04237)"
     id="g4267">
    <path
       style="fill:#585959;fill-opacity:1;fill-rule:evenodd;stroke:#000000;stroke-width:1px;stroke-linecap:butt;stroke-linejoin:miter;stroke-opacity:1"
       d="m -131.23729,180.63559 33.915253,0 0,33.91525 -33.915253,0 z"
       id="rect4269" />
    <g
       style="font-style:normal;font-weight:normal;font-size:40px;line-height:125%;font-family:sans-serif;letter-spacing:0px;word-spacing:0px;fill:#000000;fill-opacity:1;stroke:none;stroke-width:1px;stroke-linecap:butt;stroke-linejoin:miter;stroke-opacity:1"
       id="text4271">
      <path
         d="m -109.13797,197.70983 c 0.92,-1.28 1.44,-3.12 1.44,-5.56 0,-5.2 -1.92,-7.72 -6.28,-7.72 -4.4,0 -6.28,2.64 -6.28,7.72 0,2.36 0.52,4.24 1.44,5.52 l 0.2,0.24 c -0.04,0.04 -0.16,0.16 -0.2,0.24 -0.92,1.28 -1.44,3.16 -1.44,5.52 0,5.08 1.88,7.72 6.28,7.72 4.36,0 6.28,-2.52 6.28,-7.72 0,-2.44 -0.52,-4.28 -1.44,-5.56 l -0.16,-0.2 0.16,-0.2 z m -6.52,-2.4 c -0.4,-0.6 -0.6,-1.6 -0.6,-3.16 0,-2.68 0.72,-3.76 2.28,-3.76 1.6,0 2.28,1.08 2.28,3.76 0,2.68 -0.68,3.76 -2.28,3.76 -0.8,0 -1.36,-0.2 -1.68,-0.6 z m 3.32,11.52 c -0.28,0.36 -0.8,0.6 -1.64,0.6 -1.56,0 -2.28,-1.08 -2.28,-3.76 0,-2.72 0.72,-3.8 2.28,-3.8 1.6,0 2.28,1.08 2.28,3.8 0,1.52 -0.2,2.56 -0.64,3.16 z"
         style="font-style:normal;font-variant:normal;font-weight:900;font-stretch:normal;font-family:'Ostrich Sans';-inkscape-font-specification:'Ostrich Sans Heavy';fill:#ffffff;fill-opacity:1"
         id="path4309" />
    </g>
  </g>
  <g
     id="g4275"
     transform="translate(282.72881,114.04237)">
    <path
       style="fill:#585959;fill-opacity:1;fill-rule:evenodd;stroke:#000000;stroke-width:1px;stroke-linecap:butt;stroke-linejoin:miter;stroke-opacity:1"
       d="m -131.23729,180.63559 33.915253,0 0,33.91525 -33.915253,0 z"
       id="rect4277" />
    <g
       style="font-style:normal;font-weight:normal;font-size:40px;line-height:125%;font-family:sans-serif;letter-spacing:0px;word-spacing:0px;fill:#000000;fill-opacity:1;stroke:none;stroke-width:1px;stroke-linecap:butt;stroke-linejoin:miter;stroke-opacity:1"
       id="text4279">
      <path
         d="m -108.41797,191.50983 c 0,-4.48 -2.2,-7.08 -5.92,-7.08 -2,0 -3.52,0.92 -4.6,2.72 -0.84,1.36 -1.28,3.16 -1.28,5.16 l 0,2.24 c 0,4.68 1.6,7.72 5.4,7.72 1,0 2,-0.4 2.36,-1.08 l 0,0.08 c 0,1.16 0.08,3.48 -0.32,4.68 -0.28,0.84 -0.88,1.48 -1.56,1.48 -1.2,0 -1.88,-1 -1.88,-2.88 l 0,-0.04 c 0,-0.76 -0.64,-1.44 -1.44,-1.44 l -1.16,0 c -0.76,0 -1.4,0.68 -1.4,1.44 l 0,0.04 c 0,4.16 1.96,6.84 5.88,6.84 1.16,0 2.72,-0.36 3.96,-1.88 1.08,-1.32 1.96,-3.64 1.96,-7.44 l 0,-10.56 z m -4.04,3.08 c 0,2.24 -0.64,3.72 -1.88,3.72 -1.24,0 -1.88,-1.16 -1.88,-3.76 l 0,-2.24 c 0,-0.64 0.08,-1.32 0.16,-1.84 0.2,-0.84 0.64,-2.08 1.72,-2.08 0.76,0 1.24,0.36 1.48,0.88 0.36,0.68 0.4,1.56 0.4,2.24 l 0,3.08 z"
         style="font-style:normal;font-variant:normal;font-weight:900;font-stretch:normal;font-family:'Ostrich Sans';-inkscape-font-specification:'Ostrich Sans Heavy';fill:#ffffff;fill-opacity:1"
         id="path4313" />
    </g>
  </g>
  <g
     transform="translate(318.72881,114.04237)"
     id="g4283">
    <path
       style="fill:#585959;fill-opacity:1;fill-rule:evenodd;stroke:#000000;stroke-width:1px;stroke-linecap:butt;stroke-linejoin:miter;stroke-opacity:1"
       d="m -131.23729,180.63559 33.915253,0 0,33.91525 -33.915253,0 z"
       id="rect4285" />
    <g
       style="font-style:normal;font-weight:normal;font-size:40px;line-height:125%;font-family:sans-serif;letter-spacing:0px;word-spacing:0px;fill:#000000;fill-opacity:1;stroke:none;stroke-width:1px;stroke-linecap:butt;stroke-linejoin:miter;stroke-opacity:1"
       id="text4287">
      <path
         d="m -120.21797,203.46983 c 0,5.04 1.96,7.92 5.92,7.92 3.92,0 5.88,-3 5.88,-7.92 l 0,-11.16 c 0,-4.92 -1.92,-7.88 -5.88,-7.88 -4,0 -5.92,2.84 -5.92,7.88 l 0,11.16 z m 4,-11.56 c 0,-2.6 0.64,-3.44 1.92,-3.44 1.24,0 1.88,0.84 1.88,3.44 l 0,11.96 c 0,2.64 -0.64,3.48 -1.88,3.48 -1.28,0 -1.92,-0.84 -1.92,-3.48 l 0,-11.96 z"
         style="font-style:normal;font-variant:normal;font-weight:900;font-stretch:normal;font-family:'Ostrich Sans';-inkscape-font-specification:'Ostrich Sans Heavy';fill:#ffffff;fill-opacity:1"
         id="path4317" />
    </g>
  </g>
  <text
     xml:space="preserve"
     style="font-style:normal;font-weight:normal;font-size:40px;line-height:125%;font-family:Digits;letter-spacing:0px;word-spacing:0px;fill:#000000;fill-opacity:1;stroke:none;stroke-width:1px;stroke-linecap:butt;stroke-linejoin:miter;stroke-opacity:1;-inkscape-font-specification:Digits;font-stretch:normal;font-variant:normal;"
     x="273.18292"
     y="127.99391"
     id="text4345"
     sodipodi:linespacing="125%"><tspan
       sodipodi:role="line"
       id="tspan4347"
       x="273.18292"
       y="127.99391"
       style="font-style:normal;font-variant:normal;font-weight:normal;font-stretch:normal;font-size:25px;font-family:Digits;-inkscape-font-specification:Digits;fill:#00ff00;fill-opacity:1;" /></text>
  <text
     xml:space="preserve"
     style="font-style:normal;font-weight:normal;font-size:40px;line-height:125%;font-family:sans-serif;letter-spacing:0px;word-spacing:0px;fill:#000000;fill-opacity:1;stroke:none;stroke-width:1px;stroke-linecap:butt;stroke-linejoin:miter;stroke-opacity:1"
     x="310.71951"
     y="127.99391"
     id="text4349"
     sodipodi:linespacing="125%"><tspan
       sodipodi:role="line"
       id="tspan4351"
       x="310.71951"
       y="127.99391" /></text>
  <g
     style="font-style:normal;font-weight:normal;font-size:25px;line-height:125%;font-family:sans-serif;letter-spacing:0px;word-spacing:0px;fill:#00ff00;fill-opacity:1;stroke:none;stroke-width:1px;stroke-linecap:butt;stroke-linejoin:miter;stroke-opacity:1"
     id="text4353">
    <path
       d="m 276.83081,137.37805 0,-0.78125 2.34375,-2.34375 4.6875,0 2.34375,2.34375 0,0.78125 -9.375,0 z m -1.5625,-1.5625 0,-9.375 0.78125,0 2.34375,2.34375 0,4.6875 -2.34375,2.34375 -0.78125,0 z m 11.71875,0 -2.34375,-2.34375 0,-4.6875 2.34375,-2.34375 0.78125,0 0,9.375 -0.78125,0 z m -8.59375,-8.59375 -1.5625,-1.5625 1.5625,-1.5625 6.25,0 1.5625,1.5625 -1.5625,1.5625 -6.25,0 z m -3.125,-2.34375 0,-9.375 0.78125,0 2.34375,2.34375 0,4.6875 -2.34375,2.34375 -0.78125,0 z m 11.71875,0 -2.34375,-2.34375 0,-4.6875 2.34375,-2.34375 0.78125,0 0,9.375 -0.78125,0 z m -7.8125,-7.8125 -2.34375,-2.34375 0,-0.78125 9.375,0 0,0.78125 -2.34375,2.34375 -4.6875,0 z"
       style="font-style:normal;font-variant:normal;font-weight:normal;font-stretch:normal;font-size:25px;font-family:Digits;-inkscape-font-specification:Digits;fill:#00ff00;fill-opacity:1"
       id="path4358" />
    <path
       d="m 292.45581,137.37805 0,-0.78125 2.34375,-2.34375 4.6875,0 2.34375,2.34375 0,0.78125 -9.375,0 z m -1.5625,-1.5625 0,-9.375 0.78125,0 2.34375,2.34375 0,4.6875 -2.34375,2.34375 -0.78125,0 z m 11.71875,0 -2.34375,-2.34375 0,-4.6875 2.34375,-2.34375 0.78125,0 0,9.375 -0.78125,0 z m -8.59375,-8.59375 -1.5625,-1.5625 1.5625,-1.5625 6.25,0 1.5625,1.5625 -1.5625,1.5625 -6.25,0 z m -3.125,-2.34375 0,-9.375 0.78125,0 2.34375,2.34375 0,4.6875 -2.34375,2.34375 -0.78125,0 z m 11.71875,0 -2.34375,-2.34375 0,-4.6875 2.34375,-2.34375 0.78125,0 0,9.375 -0.78125,0 z m -7.8125,-7.8125 -2.34375,-2.34375 0,-0.78125 9.375,0 0,0.78125 -2.34375,2.34375 -4.6875,0 z"
       style="font-style:normal;font-variant:normal;font-weight:normal;font-stretch:normal;font-size:25px;font-family:Digits;-inkscape-font-specification:Digits;fill:#00ff00;fill-opacity:1"
       id="path4360" />
    <path
       d="m 308.08081,137.37805 0,-0.78125 2.34375,-2.34375 4.6875,0 2.34375,2.34375 0,0.78125 -9.375,0 z m -1.5625,-1.5625 0,-9.375 0.78125,0 2.34375,2.34375 0,4.6875 -2.34375,2.34375 -0.78125,0 z m 11.71875,0 -2.34375,-2.34375 0,-4.6875 2.34375,-2.34375 0.78125,0 0,9.375 -0.78125,0 z m -8.59375,-8.59375 -1.5625,-1.5625 1.5625,-1.5625 6.25,0 1.5625,1.5625 -1.5625,1.5625 -6.25,0 z m -3.125,-2.34375 0,-9.375 0.78125,0 2.34375,2.34375 0,4.6875 -2.34375,2.34375 -0.78125,0 z m 11.71875,0 -2.34375,-2.34375 0,-4.6875 2.34375,-2.34375 0.78125,0 0,9.375 -0.78125,0 z m -7.8125,-7.8125 -2.34375,-2.34375 0,-0.78125 9.375,0 0,0.78125 -2.34375,2.34375 -4.6875,0 z"
       style="font-style:normal;font-variant:normal;font-weight:normal;font-stretch:normal;font-size:25px;font-family:Digits;-inkscape-font-specification:Digits;fill:#00ff00;fill-opacity:1"
       id="path4362" />
  </g>
</svg>
